PathFileType  4	(X/Y/Z) C:\Users\antoi\Documents\MyRepositories\mobilecap\ResultsAnalysis
DataRate	CameraRate	NumFrames	NumMarkers	Units	OrigDataRate	OrigDataStartFrame	OrigNumFrames
100.0	100.0	6	51	mm	100.0	73	289
Frame#	Time	r_knee			r_shank_antsup			r_ankle			r_calc			r_5meta			r_toe			L_knee			L_shank_antsup			L_ankle			L_calc			L_5meta			L_toe			r_sh2			r_sh3			r_sh4			L_sh2			L_sh3			r_thigh1			r_thigh2			r_thigh3			r_thigh4			r_thigh5			L_thigh1			L_thigh2			L_thigh3			L_thigh4			r.ASIS			r.PSIS			L.ASIS			L.PSIS			C7			R_Shoulder			L_Shoulder			R_Sternum			L_Sternum			R_humerus			R_elbow_med			R_elbow_lat			R_forearm			R_wrist_radius			R_wrist_ulna			L_humerus			L_elbow_med			L_elbow_lat			L_forearm			L_wrist_radius			L_wrist_ulna			R_HJC			L_HJC			R_HJC_reg			L_HJC_reg			
		X1	Y1	Z1	X2	Y2	Z2	X3	Y3	Z3	X4	Y4	Z4	X5	Y5	Z5	X6	Y6	Z6	X7	Y7	Z7	X8	Y8	Z8	X9	Y9	Z9	X10	Y10	Z10	X11	Y11	Z11	X12	Y12	Z12	X13	Y13	Z13	X14	Y14	Z14	X15	Y15	Z15	X16	Y16	Z16	X17	Y17	Z17	X18	Y18	Z18	X19	Y19	Z19	X20	Y20	Z20	X21	Y21	Z21	X22	Y22	Z22	X23	Y23	Z23	X24	Y24	Z24	X25	Y25	Z25	X26	Y26	Z26	X27	Y27	Z27	X28	Y28	Z28	X29	Y29	Z29	X30	Y30	Z30	X31	Y31	Z31	X32	Y32	Z32	X33	Y33	Z33	X34	Y34	Z34	X35	Y35	Z35	X36	Y36	Z36	X37	Y37	Z37	X38	Y38	Z38	X39	Y39	Z39	X40	Y40	Z40	X41	Y41	Z41	X42	Y42	Z42	X43	Y43	Z43	X44	Y44	Z44	X45	Y45	Z45	X46	Y46	Z46	X47	Y47	Z47	X48	Y48	Z48	X49	Y49	Z49	X50	Y50	Z50	X51	Y51	Z51	

73	0.72000000	-1091.04202	785.92717	-447.58404	-1083.44283	702.34385	-429.02471	-1292.01855	407.02451	-455.40966	-1355.60419	355.51292	-503.53626	-1159.04919	347.99518	-406.38717	-1121.73129	372.27501	-464.78942	-1071.30840	780.20239	-723.72394	-1080.42144	667.89200	-743.82551	-1284.52723	408.02999	-739.28964	-1360.07958	361.95587	-709.49229	-1139.16405	343.20872	-775.34249	-1117.39762	367.36419	-709.96377	-1138.94395	603.28118	-428.03023	-1148.46409	738.24203	-415.10026	-1211.58739	640.30005	-414.90561	-1153.11033	718.47445	-759.86351	-1209.79319	612.92975	-767.71494	-1188.39128	1081.91127	-397.11994	-1120.83513	995.33319	-413.63632	-1151.47762	939.05729	-392.25742	-1277.94957	1012.51146	-403.08010	-1201.96711	921.75006	-408.38242	-1169.81019	1082.86548	-751.93987	-1086.77490	972.70559	-740.03573	-1265.64684	1011.22881	-759.53845	-1173.77141	905.96445	-758.33032	-1202.94045	1188.82992	-444.29147	-1349.41127	1312.31552	-535.12056	-1189.92115	1177.68418	-705.30669	-1344.98079	1304.06497	-640.51899	-979.80993	1683.32790	-575.93192	-949.86416	1606.80463	-396.12819	-930.82577	1605.61846	-733.18230	-907.44370	1531.38090	-537.39924	-906.10937	1526.87616	-595.97459	-1199.46863	1521.87957	-294.56374	-1294.85449	1488.37062	-371.31409	-1290.25070	1509.22533	-286.99112	-1373.02088	1377.29738	-238.41471	-1432.92704	1278.44250	-228.81767	-1459.96373	1312.77375	-215.83502	-1170.42096	1552.41523	-834.82092	-1268.83457	1558.46357	-766.61591	-1262.59804	1559.60706	-838.14585	-1383.26271	1432.37957	-879.31695	-1439.22850	1349.66356	-884.83361	-1467.83232	1377.94253	-890.23176	-1313.49525	1158.82914	-456.39464	-1300.22895	1147.33506	-686.09250	-1301.91784	1160.27090	-483.45644	-1294.67346	1146.81024	-655.41224	
74	0.73000000	-1087.13847	783.65415	-448.32786	-1080.01173	700.16759	-429.52281	-1291.37459	406.88057	-455.39250	-1355.45000	355.58138	-503.56657	-1158.83846	347.52015	-406.31702	-1121.54360	371.63308	-464.69636	-1066.99538	777.79815	-723.51000	-1077.06538	665.95572	-743.80451	-1284.16255	408.10563	-738.90202	-1359.97764	362.13234	-709.36906	-1138.99960	343.01484	-775.53960	-1117.28981	367.01379	-710.20109	-1136.37368	601.58452	-428.53616	-1144.72419	736.73469	-415.67002	-1208.66625	639.34570	-415.24154	-1148.91336	717.76267	-760.54009	-1207.10603	612.52234	-767.26811	-1185.32052	1079.01745	-397.03321	-1118.17757	993.20412	-413.42849	-1148.10909	936.35777	-392.32567	-1274.91481	1009.34427	-403.15970	-1198.55042	918.93499	-408.46993	-1166.97038	1079.85746	-751.53242	-1083.33845	970.31049	-739.92057	-1262.44550	1007.72727	-758.89860	-1169.96900	902.99989	-758.05799	-1200.01466	1185.26900	-443.64754	-1347.27471	1308.61826	-536.17137	-1187.12469	1173.34748	-704.81445	-1342.45124	1299.84841	-640.01846	-975.81745	1677.76490	-574.77999	-946.01116	1597.77660	-394.97296	-926.98442	1598.81003	-733.35239	-903.56607	1525.35162	-537.02505	-902.37722	1521.60632	-595.54071	-1191.74972	1500.28875	-291.48947	-1287.39033	1464.70249	-367.19743	-1281.87314	1483.27736	-282.54067	-1355.35374	1344.78709	-236.85826	-1408.90614	1241.87949	-229.42220	-1437.22505	1274.11291	-214.23404	-1165.38772	1533.26330	-835.77056	-1264.93753	1535.70098	-767.11945	-1257.74279	1535.71546	-840.01453	-1371.11682	1400.20077	-879.18960	-1420.18945	1314.48208	-885.83537	-1450.56140	1340.78613	-891.20003	-1310.86615	1155.30726	-455.93979	-1297.39193	1142.92513	-685.57905	-1299.50062	1156.70308	-483.13621	-1291.51252	1142.17109	-655.08179	
75	0.74000000	-1082.84661	781.36886	-448.71454	-1076.39286	697.83845	-430.04155	-1290.87870	406.71399	-455.49465	-1355.31291	355.71872	-503.62050	-1158.62151	347.02444	-406.15714	-1121.40610	371.00731	-464.65995	-1062.40869	775.24927	-723.37425	-1073.58572	663.77684	-743.56375	-1283.79414	408.22731	-738.56565	-1360.02486	362.31000	-709.18405	-1138.89457	342.80633	-775.72032	-1117.16325	366.73339	-710.26391	-1133.76361	599.92421	-428.68131	-1140.63287	735.06705	-416.22768	-1205.66833	638.29801	-415.58033	-1144.66646	716.74677	-760.94299	-1204.20546	612.07151	-767.03170	-1181.85926	1076.17396	-396.56745	-1115.13820	991.06645	-413.23462	-1144.32861	933.63531	-392.20115	-1271.47959	1006.06710	-403.44177	-1194.65057	916.17545	-408.31225	-1163.59940	1076.80520	-751.09614	-1079.54447	967.75045	-739.83660	-1258.86063	1004.32198	-758.32436	-1165.88551	900.04824	-757.78379	-1196.58913	1182.15221	-443.08977	-1343.57844	1305.24353	-535.85678	-1183.78369	1169.42513	-704.39712	-1339.34273	1295.91139	-639.63636	-972.57256	1673.23287	-573.96211	-942.97796	1590.23547	-394.24561	-923.51677	1593.06142	-733.39768	-900.02587	1520.14062	-536.43381	-899.16332	1517.19738	-594.80490	-1182.85548	1478.65178	-288.42053	-1279.10455	1439.88154	-363.14001	-1272.15490	1456.26813	-278.15438	-1334.54012	1311.63252	-235.26023	-1380.73742	1204.70028	-229.96244	-1410.82368	1234.37328	-213.39506	-1159.46784	1513.46735	-837.22593	-1260.55997	1511.72698	-768.19862	-1251.92328	1510.58466	-842.50388	-1356.20123	1366.85642	-879.67046	-1398.09643	1278.08191	-886.74414	-1430.13349	1302.21890	-892.59934	-1307.28833	1152.11108	-455.19261	-1294.11014	1138.99846	-684.80831	-1295.73204	1154.00192	-481.90702	-1288.70883	1138.52136	-653.92913	
76	0.75000000	-1078.26987	778.88786	-449.00310	-1072.52549	695.50075	-430.46009	-1290.62074	406.50818	-455.78852	-1355.17363	355.89612	-503.69343	-1158.52661	346.62201	-405.98517	-1121.30073	370.45317	-464.70037	-1057.62204	772.66790	-723.19503	-1069.98428	661.36628	-743.24023	-1283.39125	408.52715	-738.42447	-1360.15757	362.53661	-708.99965	-1138.85080	342.52168	-775.77346	-1117.01416	366.46800	-710.12869	-1131.06446	598.14412	-428.65623	-1136.37624	733.35884	-416.63339	-1202.47619	637.18223	-415.77436	-1140.55044	715.09401	-760.46125	-1201.24175	611.31696	-766.94873	-1178.13736	1073.19381	-396.15904	-1110.87442	988.26430	-413.40412	-1140.12328	930.75830	-392.40787	-1267.51692	1002.92169	-403.46688	-1190.14894	913.48266	-407.76261	-1159.79331	1073.74492	-750.60608	-1075.35518	964.92165	-739.79591	-1254.88238	1000.97827	-757.61766	-1161.58310	897.02086	-757.37735	-1192.65612	1179.30592	-442.67173	-1338.35732	1302.01871	-534.55436	-1179.78515	1165.94805	-704.29654	-1334.89385	1292.70963	-639.24297	-970.17894	1669.88868	-573.55318	-940.90136	1584.58689	-394.06039	-920.47982	1588.52274	-733.24718	-897.00233	1516.56929	-536.00250	-896.36008	1513.95049	-593.96910	-1172.27577	1457.53837	-285.64793	-1269.46253	1415.03600	-357.69909	-1260.37129	1428.69771	-273.78893	-1310.09705	1278.66236	-233.92639	-1347.94096	1167.98794	-230.87755	-1379.72934	1194.68277	-212.70451	-1152.20775	1493.50535	-838.98235	-1254.92219	1486.15988	-770.71843	-1244.72213	1484.47448	-845.26072	-1336.17394	1333.45110	-881.82605	-1372.15082	1241.19036	-887.73053	-1405.77185	1262.70525	-894.47771	-1302.87012	1149.13423	-454.48830	-1290.18926	1135.80747	-684.12019	-1291.14890	1151.06190	-480.76222	-1285.44712	1135.72520	-653.09207	
77	0.76000000	-1073.48845	776.09119	-449.48902	-1068.39569	693.12881	-430.76946	-1290.28898	406.35919	-456.03366	-1354.98914	356.09474	-503.68640	-1158.50886	346.33100	-405.83723	-1121.14990	369.96379	-464.74936	-1052.63274	769.94704	-722.91358	-1066.13853	658.87712	-742.94562	-1282.92818	408.95670	-738.30127	-1360.10523	362.90851	-708.91390	-1138.77062	342.16263	-775.79635	-1116.84085	366.20063	-710.02430	-1128.02999	596.29154	-428.70636	-1132.00795	731.62784	-416.83136	-1198.99420	636.04834	-415.96270	-1136.22845	713.07404	-759.38477	-1198.13497	610.42809	-766.69461	-1174.11833	1069.85809	-395.99439	-1105.73439	984.80895	-413.61506	-1135.57858	927.54692	-393.30251	-1262.92694	999.89947	-403.12080	-1185.30339	910.52203	-407.58987	-1155.57304	1070.59560	-750.17808	-1070.73102	961.88879	-739.75909	-1250.25364	997.70236	-756.94411	-1157.02184	893.77672	-756.68561	-1188.28271	1176.63843	-442.43326	-1333.50353	1298.68556	-533.77499	-1175.37427	1162.88650	-704.42582	-1330.01564	1289.60869	-638.42293	-968.59675	1667.69750	-573.29997	-939.71324	1581.17141	-394.27206	-917.99328	1585.29228	-732.80189	-894.52173	1514.77124	-535.89997	-893.61045	1512.45981	-593.26355	-1159.80761	1437.54458	-283.33706	-1257.65503	1391.13971	-350.53727	-1245.82550	1401.33558	-269.34707	-1281.55777	1246.74526	-233.07029	-1310.20353	1132.87351	-232.45196	-1343.06684	1156.29947	-212.10348	-1143.29329	1474.09808	-840.54509	-1247.53311	1459.57798	-774.15650	-1235.63026	1457.91539	-848.05510	-1311.54681	1300.38676	-884.47763	-1341.31827	1204.97295	-889.22464	-1376.49937	1223.11595	-896.73854	-1298.06623	1146.04761	-454.03428	-1285.73151	1132.81192	-683.69038	-1286.68958	1147.62387	-480.61518	-1280.93598	1132.64859	-653.23651	
78	0.77000000	-1068.51970	773.02100	-450.22483	-1064.12536	690.46585	-431.16389	-1289.62740	406.40784	-455.99869	-1354.77049	356.31456	-503.61630	-1158.44982	346.07144	-405.68898	-1120.93557	369.55142	-464.74152	-1047.33091	767.03575	-722.59250	-1061.93915	656.45960	-742.72524	-1282.31180	409.50381	-738.15872	-1359.69050	363.60131	-708.95701	-1138.58766	341.78469	-775.90661	-1116.63812	365.93816	-710.02653	-1124.62541	594.37757	-428.88675	-1127.24153	729.66206	-416.98775	-1195.23832	634.78617	-416.21031	-1131.43827	711.09867	-758.30382	-1194.67904	609.64256	-766.28180	-1169.26910	1066.43680	-395.93260	-1100.88127	981.44747	-413.50860	-1130.64700	924.15825	-393.89171	-1257.79908	996.72080	-402.79715	-1180.50388	906.98289	-408.32152	-1150.81475	1067.31424	-749.98248	-1065.66025	958.80023	-739.66297	-1245.48319	994.20743	-756.04889	-1152.05271	890.41643	-755.91097	-1183.56533	1174.11658	-442.19024	-1329.65974	1295.27683	-533.63564	-1170.85734	1160.04261	-704.11520	-1325.65923	1286.03691	-637.47303	-967.92369	1666.55841	-573.06583	-939.22371	1579.92078	-394.60953	-916.23347	1583.57235	-732.14531	-892.53620	1514.53371	-535.74661	-890.99294	1512.75223	-592.56310	-1145.54621	1419.23661	-281.42996	-1242.50179	1367.43472	-343.90641	-1228.01723	1374.99327	-265.08892	-1248.42463	1216.95907	-232.78605	-1266.91477	1100.55847	-234.95055	-1300.66717	1120.48614	-212.44506	-1132.61747	1455.85659	-841.57951	-1238.27073	1432.82080	-777.50355	-1224.12289	1431.76661	-850.78663	-1283.66577	1268.15883	-886.59744	-1304.89756	1170.42322	-890.67770	-1341.35523	1184.80780	-899.09854	-1293.16555	1142.87406	-453.50584	-1281.00211	1129.49618	-683.16266	-1282.29029	1144.39639	-480.77895	-1275.64588	1129.04674	-653.29211	
